<svg width="27" height="27" viewBox="0 0 27 27" fill="none" xmlns="http://www.w3.org/2000/svg">
<circle cx="13.5" cy="13.5" r="13.5" fill="#FDF7F2"/>
<g clip-path="url(#clip0_7_43)">
<path d="M12.0752 17.1352L19.7551 9.97289L20.2661 10.5216L12.5862 17.6825L12.0752 17.1352ZM17.8034 7.88303L10.1258 15.0418L11.4207 16.4304L19.0983 9.27092L17.8034 7.88303ZM17.1496 7.18116L16.5071 6.49142L8.82737 13.6494L9.46988 14.3384L17.1496 7.18116ZM12.0579 18.1759L8.29749 14.1449L6.50992 17.8766L8.2098 19.701L12.0579 18.1759ZM5.40428 20.9794L7.45732 20.166C7.54586 20.1295 7.61156 20.0541 7.63241 19.961C7.65255 19.8671 7.62583 19.7715 7.56231 19.7004L6.46246 18.5217C6.39743 18.452 6.30253 18.4186 6.20739 18.4343C6.11378 18.4479 6.03322 18.5082 5.99133 18.5947L5.03814 20.5868C4.98677 20.6928 5.00579 20.8203 5.08555 20.9089C5.16841 20.9932 5.29422 21.0232 5.40428 20.9794ZM20.921 9.91168L22.3589 8.56935C22.4756 8.4605 22.482 8.27813 22.3731 8.16213L19.0079 4.55264C18.8991 4.43591 18.7167 4.42955 18.6 4.5384L17.1628 5.87928C17.0461 5.98813 17.0397 6.1705 17.1486 6.28723L20.5138 9.89672C20.6226 10.0127 20.805 10.0191 20.921 9.91168Z" fill="#6F6D6B"/>
</g>
<defs>
<clipPath id="clip0_7_43">
<rect width="17" height="17" fill="white" transform="translate(22.5829 4.59329) rotate(92)"/>
</clipPath>
</defs>
</svg>
