<svg width="39" height="39" viewBox="0 0 39 39" fill="none" xmlns="http://www.w3.org/2000/svg">
<g clip-path="url(#clip0_1_6)">
<path d="M6.21265 7.60987C6.21265 11.724 9.55964 15.0709 13.6738 15.0709C17.788 15.0709 21.135 11.724 21.135 7.60987C21.135 3.49572 17.788 0.148621 13.6738 0.148621C9.55964 0.148621 6.21265 3.49572 6.21265 7.60987Z" fill="black"/>
<path d="M25.8487 31.1949C26.1969 31.543 26.6534 31.7172 27.1098 31.7172C27.5662 31.7172 28.0227 31.543 28.371 31.1947C29.0674 30.4982 29.0674 29.3689 28.3708 28.6724L26.065 26.3667L28.3711 24.0605C29.0675 23.364 29.0675 22.2346 28.371 21.5381C27.6744 20.8417 26.5451 20.8418 25.8486 21.5382L22.2815 25.1055C21.947 25.4401 21.7591 25.8937 21.7591 26.3667C21.7591 26.8398 21.947 27.2934 22.2816 27.6279L25.8487 31.1949Z" fill="black"/>
<path d="M1.78354 34.0953H16.7172C19.0056 36.9903 22.5471 38.8514 26.5152 38.8514C33.3992 38.8514 39 33.2507 39 26.3666C39 19.4826 33.3992 13.8819 26.5152 13.8819C22.4145 13.8819 18.7693 15.8694 16.4921 18.9317C15.569 18.7381 14.626 18.638 13.6738 18.638C6.13406 18.638 0 24.772 0 32.3117C0 33.2967 0.798549 34.0953 1.78354 34.0953ZM26.5152 17.4489C31.4325 17.4489 35.4329 21.4494 35.4329 26.3666C35.4329 31.2838 31.4325 35.2843 26.5152 35.2843C21.598 35.2843 17.5976 31.2838 17.5976 26.3666C17.5976 21.4494 21.5979 17.4489 26.5152 17.4489Z" fill="black"/>
</g>
<defs>
<clipPath id="clip0_1_6">
<rect width="39" height="39" fill="white"/>
</clipPath>
</defs>
</svg>
