<svg width="39" height="39" viewBox="0 0 39 39" fill="none" xmlns="http://www.w3.org/2000/svg">
<g clip-path="url(#clip0_1_34)">
<path d="M6.21265 7.60987C6.21265 11.724 9.55963 15.0709 13.6738 15.0709C17.788 15.0709 21.135 11.724 21.135 7.60987C21.135 3.49572 17.788 0.148621 13.6738 0.148621C9.55963 0.148621 6.21265 3.49572 6.21265 7.60987Z" fill="black"/>
<path d="M26.8038 31.1949C26.4556 31.543 25.9991 31.7172 25.5428 31.7172C25.0863 31.7172 24.6298 31.543 24.2816 31.1947C23.5852 30.4982 23.5852 29.3689 24.2817 28.6724L26.5876 26.3667L24.2814 24.0605C23.585 23.364 23.585 22.2346 24.2816 21.5381C24.9781 20.8417 26.1074 20.8418 26.804 21.5382L30.371 25.1055C30.7055 25.4401 30.8934 25.8937 30.8934 26.3667C30.8934 26.8398 30.7055 27.2934 30.3709 27.6279L26.8038 31.1949Z" fill="black"/>
<path d="M1.78354 34.0953H16.7172C19.0056 36.9903 22.5471 38.8514 26.5152 38.8514C33.3992 38.8514 39 33.2507 39 26.3666C39 19.4826 33.3992 13.8819 26.5152 13.8819C22.4145 13.8819 18.7693 15.8694 16.4921 18.9317C15.569 18.7381 14.626 18.638 13.6738 18.638C6.13406 18.638 0 24.772 0 32.3117C0 33.2967 0.798549 34.0953 1.78354 34.0953ZM26.5152 17.4489C31.4325 17.4489 35.4329 21.4494 35.4329 26.3666C35.4329 31.2838 31.4325 35.2843 26.5152 35.2843C21.598 35.2843 17.5976 31.2838 17.5976 26.3666C17.5976 21.4494 21.5979 17.4489 26.5152 17.4489Z" fill="black"/>
</g>
<defs>
<clipPath id="clip0_1_34">
<rect width="39" height="39" fill="white"/>
</clipPath>
</defs>
</svg>
