<svg width="60" height="60" viewBox="0 0 60 60" fill="none" xmlns="http://www.w3.org/2000/svg">
<path d="M48.75 30C48.75 32.07 47.07 33.75 45 33.75H15C12.93 33.75 11.25 32.07 11.25 30C11.25 27.93 12.93 26.25 15 26.25H45C47.07 26.25 48.75 27.93 48.75 30Z" fill="black"/>
<path d="M48.75 15C48.75 17.07 47.07 18.75 45 18.75H15C12.93 18.75 11.25 17.07 11.25 15C11.25 12.93 12.93 11.25 15 11.25H45C47.07 11.25 48.75 12.93 48.75 15Z" fill="black"/>
<path d="M48.75 45C48.75 47.07 47.07 48.75 45 48.75H15C12.93 48.75 11.25 47.07 11.25 45C11.25 42.93 12.93 41.25 15 41.25H45C47.07 41.25 48.75 42.93 48.75 45Z" fill="black"/>
</svg>
