<svg width="60" height="60" viewBox="0 0 60 60" fill="none" xmlns="http://www.w3.org/2000/svg">
<g clip-path="url(#clip0_1_43)">
<path d="M59.4103 36.2653L50.8722 23.0712C50.2088 22.0516 49.0909 21.4373 47.8747 21.4373H44.1032C43.5504 21.4373 43.2187 22.0516 43.5258 22.5061L52.7396 36.7567C52.8624 36.941 52.7273 37.1867 52.5061 37.1867H48.4644H45.172H42.0147C41.6339 37.1867 41.3391 37.4938 41.3145 37.8624C40.9582 43.8083 36.0319 48.5258 29.9877 48.5258C23.9435 48.5258 19.0172 43.8083 18.6609 37.8624C18.6364 37.4815 18.3415 37.1867 17.9607 37.1867H14.8034H11.9779H7.48157C7.26044 37.1867 7.13759 36.941 7.24816 36.7567L16.4619 22.5061C16.7568 22.0393 16.4251 21.4373 15.8845 21.4373H12.113C10.8968 21.4373 9.77887 22.0516 9.11548 23.0712L0.589681 36.2653C0.208845 36.855 0 37.5553 0 38.2678V56.6462C0 58.4398 1.46192 59.9017 3.25553 59.9017H30H56.7445C58.5381 59.9017 60 58.4398 60 56.6462V38.2678C60 37.5553 59.8034 36.8673 59.4103 36.2653Z" fill="black"/>
<path d="M30.9828 0.577382C30.4791 -0.0614385 29.5086 -0.0614385 29.0049 0.577382L20.9091 10.8722C20.258 11.6953 20.8476 12.9115 21.8919 12.9115H25.086V32.3587C25.086 35.0737 27.285 37.2727 30 37.2727C32.715 37.2727 34.914 35.0737 34.914 32.3587V12.8992H38.1081C39.1523 12.8992 39.742 11.683 39.0909 10.8599L30.9828 0.577382Z" fill="black"/>
</g>
<defs>
<clipPath id="clip0_1_43">
<rect width="60" height="60" fill="white"/>
</clipPath>
</defs>
</svg>
